<svg width="29" height="30" viewBox="0 0 29 30" fill="rgb(250 250 249)" xmlns="http://www.w3.org/2000/svg">
    <path d="M0.527028 13.8645C0.250469 13.087 0 12.2938 0 11.4589C0 10.7075 0.417448 10.2849 1.16364 10.2536C3.52743 10.1492 5.89123 10.0396 8.25503 9.94048C9.90394 9.87264 11.5424 9.97179 13.1339 10.4571C15.2055 11.0937 16.8753 12.2678 17.9502 14.1828C18.8582 15.8004 19.213 17.5641 19.2704 19.4009C19.2965 20.2462 19.2496 21.0863 19.0356 21.9108C18.9365 22.2813 18.733 22.5578 18.3781 22.73C18.0129 22.9022 17.658 23.1057 17.2928 23.2727C15.5604 24.0815 13.7549 24.6294 11.8294 24.692C9.13167 24.7807 6.78874 23.9458 4.89457 21.9838C3.98662 21.0446 3.36045 19.9175 2.8543 18.926C1.92548 17.1832 1.12711 15.576 0.532246 13.8749L0.527028 13.8645ZM16.5414 16.197C15.6543 13.9062 13.8854 12.7374 11.5529 12.2886C10.2744 12.0434 8.99078 12.0642 7.69669 12.1216C6.00603 12.1999 4.31536 12.273 2.6247 12.3512C2.53078 12.3512 2.44207 12.3617 2.3064 12.3669C2.53078 12.9774 2.72906 13.5723 2.95866 14.1515C3.59005 15.7743 4.40407 17.3084 5.25462 18.8269C6.8931 21.7386 9.60129 22.8657 12.7217 22.4378C13.9845 22.2656 15.1794 21.869 16.3274 21.3264C16.3848 21.3003 16.4422 21.2637 16.5518 21.2011C16.27 20.7889 16.0196 20.3662 15.7169 19.9905C13.5253 17.3136 10.7023 16.15 7.25837 16.484C6.71569 16.5362 6.28259 16.3118 6.0843 15.8787C5.88601 15.4404 5.95906 14.9342 6.33477 14.6368C6.53306 14.4802 6.80961 14.3654 7.0653 14.3393C10.958 13.9219 14.2297 15.169 16.8753 18.0494C16.9014 18.0807 16.9275 18.1068 16.9588 18.1381C16.9536 17.4545 16.7866 16.8127 16.5466 16.1918L16.5414 16.197Z" fill="rgb(250 250 249)" />
    <path d="M18.3312 3.42308C19.0095 4.34669 19.7087 5.20767 20.3036 6.13128C21.0602 7.30535 21.7647 8.52116 22.4378 9.74742C23.7684 12.179 23.3875 15.3047 21.5455 17.4285C21.3368 17.6685 21.1646 17.919 21.1594 18.2581C21.1489 18.7121 21.4151 19.1139 21.8429 19.2861C22.2656 19.4531 22.7352 19.3435 23.0588 18.9782C23.8832 18.0651 24.5042 17.0267 24.8903 15.863C25.7356 13.3062 25.5321 10.8276 24.2067 8.48985C23.3144 6.91399 22.3439 5.37987 21.3524 3.8614C20.7315 2.90649 20.0166 2.01942 19.1243 1.2941C18.9991 1.19496 18.8686 1.10103 18.733 1.01754C18.1016 0.647057 17.5276 0.772292 17.1101 1.37759C16.1657 2.75517 15.2264 4.13275 14.2871 5.51032C13.8853 6.09997 13.4731 6.68961 13.0818 7.28969C12.8209 7.69149 12.8365 8.10893 13.1131 8.50029C13.3635 8.85512 13.7184 8.99601 14.1515 8.93861C14.5011 8.89165 14.7463 8.68292 14.9394 8.40115C16.0039 6.83572 17.0736 5.27029 18.1381 3.70486C18.1851 3.63703 18.2372 3.56919 18.3312 3.43352V3.42308Z" fill="rgb(250 250 249)" />
    <path d="M27.802 29.3048C28.3134 29.2527 28.6943 28.8039 28.6526 28.2873C28.6108 27.7655 28.1568 27.3794 27.635 27.4159C25.099 27.6142 23.064 27.0611 21.5768 25.7722C19.2026 23.711 18.9626 20.3871 18.9626 20.3558C18.9312 19.834 18.4825 19.4374 17.9607 19.4687C17.4389 19.5 17.0423 19.9436 17.0736 20.4654C17.084 20.6324 17.3449 24.5877 20.3193 27.1863C22.203 28.83 24.7129 29.5397 27.7811 29.2996C27.7864 29.2996 27.7916 29.2996 27.802 29.2996V29.3048Z" fill="rgb(250 250 249)" />
</svg>