<?xml version="1.0" standalone="no"?>
<svg xmlns:xlink="http://www.w3.org/1999/xlink" id="wave" style="transform:rotate(180deg); transition: 0.3s" viewBox="0 0 1440 150" version="1.1" xmlns="http://www.w3.org/2000/svg"><defs><linearGradient id="sw-gradient-0" x1="0" x2="0" y1="1" y2="0"><stop stop-color="rgba(132, 204, 22, 1)" offset="0%"/><stop stop-color="rgba(132, 204, 22, 1)" offset="100%"/></linearGradient></defs><path style="transform:translate(0, 0px); opacity:1" fill="url(#sw-gradient-0)" d="M0,0L40,15C80,30,160,60,240,62.5C320,65,400,40,480,37.5C560,35,640,55,720,70C800,85,880,95,960,105C1040,115,1120,125,1200,120C1280,115,1360,95,1440,75C1520,55,1600,35,1680,35C1760,35,1840,55,1920,75C2000,95,2080,115,2160,125C2240,135,2320,135,2400,120C2480,105,2560,75,2640,55C2720,35,2800,25,2880,22.5C2960,20,3040,25,3120,30C3200,35,3280,40,3360,37.5C3440,35,3520,25,3600,17.5C3680,10,3760,5,3840,7.5C3920,10,4000,20,4080,20C4160,20,4240,10,4320,27.5C4400,45,4480,90,4560,107.5C4640,125,4720,115,4800,102.5C4880,90,4960,75,5040,75C5120,75,5200,90,5280,102.5C5360,115,5440,125,5520,117.5C5600,110,5680,85,5720,72.5L5760,60L5760,150L5720,150C5680,150,5600,150,5520,150C5440,150,5360,150,5280,150C5200,150,5120,150,5040,150C4960,150,4880,150,4800,150C4720,150,4640,150,4560,150C4480,150,4400,150,4320,150C4240,150,4160,150,4080,150C4000,150,3920,150,3840,150C3760,150,3680,150,3600,150C3520,150,3440,150,3360,150C3280,150,3200,150,3120,150C3040,150,2960,150,2880,150C2800,150,2720,150,2640,150C2560,150,2480,150,2400,150C2320,150,2240,150,2160,150C2080,150,2000,150,1920,150C1840,150,1760,150,1680,150C1600,150,1520,150,1440,150C1360,150,1280,150,1200,150C1120,150,1040,150,960,150C880,150,800,150,720,150C640,150,560,150,480,150C400,150,320,150,240,150C160,150,80,150,40,150L0,150Z"/></svg>